<svg width="512" height="512" xmlns="http://www.w3.org/2000/svg">

 <g>
  <title>background</title>
  <rect fill="none" id="canvas_background" height="402" width="582" y="-1" x="-1"/>
 </g>
 <g>
  <title>Layer 1</title>
  <path fill="#fcbf3c" id="XMLID_199_" d="m489,255.9c0,-0.2 0,-0.5 0,-0.7c0,-1.6 0,-3.2 -0.1,-4.7c0,-0.9 -0.1,-1.8 -0.1,-2.8c0,-0.9 -0.1,-1.8 -0.1,-2.7c-0.1,-1.1 -0.1,-2.2 -0.2,-3.3c0,-0.7 -0.1,-1.4 -0.1,-2.1c-0.1,-1.2 -0.2,-2.4 -0.3,-3.6c0,-0.5 -0.1,-1.1 -0.1,-1.6c-0.1,-1.3 -0.3,-2.6 -0.4,-4c0,-0.3 -0.1,-0.7 -0.1,-1c-13.2,-116.2 -111.8,-206.5 -231.5,-206.5s-218.3,90.3 -231.5,206.6c0,0.3 -0.1,0.7 -0.1,1c-0.1,1.3 -0.3,2.6 -0.4,4c-0.1,0.5 -0.1,1.1 -0.1,1.6c-0.1,1.2 -0.2,2.4 -0.3,3.6c0,0.7 -0.1,1.4 -0.1,2.1c-0.1,1.1 -0.1,2.2 -0.2,3.3c0,0.9 -0.1,1.8 -0.1,2.7c0,0.9 -0.1,1.8 -0.1,2.8c0,1.6 -0.1,3.2 -0.1,4.7c0,0.2 0,0.5 0,0.7c0,0 0,0 0,0.1s0,0 0,0.1c0,0.2 0,0.5 0,0.7c0,1.6 0,3.2 0.1,4.7c0,0.9 0.1,1.8 0.1,2.8c0,0.9 0.1,1.8 0.1,2.7c0.1,1.1 0.1,2.2 0.2,3.3c0,0.7 0.1,1.4 0.1,2.1c0.1,1.2 0.2,2.4 0.3,3.6c0,0.5 0.1,1.1 0.1,1.6c0.1,1.3 0.3,2.6 0.4,4c0,0.3 0.1,0.7 0.1,1c13.2,116.1 111.8,206.4 231.5,206.4s218.3,-90.3 231.5,-206.5c0,-0.3 0.1,-0.7 0.1,-1c0.1,-1.3 0.3,-2.6 0.4,-4c0.1,-0.5 0.1,-1.1 0.1,-1.6c0.1,-1.2 0.2,-2.4 0.3,-3.6c0,-0.7 0.1,-1.4 0.1,-2.1c0.1,-1.1 0.1,-2.2 0.2,-3.3c0,-0.9 0.1,-1.8 0.1,-2.7c0,-0.9 0.1,-1.8 0.1,-2.8c0,-1.6 0.1,-3.2 0.1,-4.7c0,-0.2 0,-0.5 0,-0.7c0,-0.1 0,-0.1 0,-0.2c0,0.1 0,0.1 0,0z" class="st0"/>
  <polygon fill="#ffffff" points="256,119.4 300.4,209.3 399.6,223.8 327.8,293.8 344.8,392.6 256,345.9 167.2,392.6   184.2,293.8 112.4,223.8 211.6,209.3 " id="XMLID_198_" class="st1"/>
 </g>
</svg>